# xmcd
#
# Track frame offsets: 
#        150
#        17251
#        33391
#        52036
#        70816
#        88227
#        102976
#        113926
#        130369
#        145122
#        156188
#        171351
#        192938
#        208534
#
# Disc length: 3004 seconds
#
# Revision: 0
# Processed by: cddbd v1.5.2PL0 Copyright (c) Steve Scherf et al.
# Submitted via: ExactAudioCopy v0.95b4
#
DISCID=c50bba0e
DTITLE=Blue Collar Comedy Tour - The Next Generation
DYEAR=2008
DGENRE=Comedy
TTITLE0=Bill Engvall - Turning 50
TTITLE1=Jamie Kaler - On Call Party Guy
TTITLE2=Jamie Kaler - In The Navy
TTITLE3=Jamie Kaler - Alpha Male
TTITLE4=Juston McKinney - White Clutter
TTITLE5=Juston McKinney - Juicy Balls
TTITLE6=Juston McKinney - The Nagging Screener
TTITLE7=John Caparulo - Coke vs. Pepsi
TTITLE8=John Caparulo - Customer Service
TTITLE9=John Caparulo - Dog Park
TTITLE10=Reno Collier - Alien Abduction
TTITLE11=Reno Collier - Off Constantly
TTITLE12=Reno Collier - I Got Soap
TTITLE13=Bill Engvall - Driving With Wally
EXTD=
EXTT0=
EXTT1=
EXTT2=
EXTT3=
EXTT4=
EXTT5=
EXTT6=
EXTT7=
EXTT8=
EXTT9=
EXTT10=
EXTT11=
EXTT12=
EXTT13=
PLAYORDER=
